<svg width="182" height="48" viewBox="0 0 182 48" fill="none" xmlns="http://www.w3.org/2000/svg">
<path d="M25.3746 6.97609L32.7048 9.25385C39.4383 11.3462 43.2007 18.5009 41.1084 25.2344L35.0421 44.7568L15.5198 38.6905C8.78631 36.5981 5.0239 29.4434 7.11624 22.7099L9.394 15.3797C11.4863 8.64617 18.6411 4.88376 25.3746 6.97609Z" fill="url(#paint0_linear)" stroke="url(#paint1_linear)" stroke-width="4.41054"/>
<path fill-rule="evenodd" clip-rule="evenodd" d="M21.2927 19.8652C20.9386 20.0696 20.8172 20.5224 21.0217 20.8766L23.9145 25.887C23.9431 25.9365 24.0065 25.9535 24.0561 25.9249V25.9249C24.1246 25.8853 24.2105 25.9356 24.2116 26.0148V26.0148C24.2123 26.0728 24.26 26.1201 24.318 26.1193L27.962 26.0709C28.3709 26.0654 28.698 25.7296 28.6925 25.3207C28.6871 24.9118 28.3512 24.5848 27.9424 24.5902L26.6226 24.6078C25.5583 24.6219 24.5694 24.0597 24.0371 23.1378L22.3041 20.1362C22.0996 19.782 21.6468 19.6607 21.2927 19.8652Z" fill="white"/>
<path d="M27.962 26.0709L27.9572 25.7034L27.9572 25.7034L27.962 26.0709ZM27.9424 24.5902L27.9472 24.9577L27.9472 24.9577L27.9424 24.5902ZM22.3041 20.1362L21.9858 20.3199L22.3041 20.1362ZM21.34 20.6928C21.237 20.5144 21.2981 20.2864 21.4765 20.1835L21.1089 19.5469C20.579 19.8528 20.3974 20.5304 20.7034 21.0603L21.34 20.6928ZM24.2328 25.7032L21.34 20.6928L20.7034 21.0603L23.5961 26.0707L24.2328 25.7032ZM27.9572 25.7034L24.3131 25.7518L24.3229 26.4868L27.9669 26.4384L27.9572 25.7034ZM28.325 25.3256C28.3278 25.5315 28.1631 25.7006 27.9572 25.7034L27.9669 26.4384C28.5788 26.4303 29.0682 25.9277 29.06 25.3158L28.325 25.3256ZM27.9472 24.9577C28.1531 24.955 28.3223 25.1197 28.325 25.3256L29.06 25.3158C29.0519 24.704 28.5493 24.2146 27.9375 24.2227L27.9472 24.9577ZM26.6275 24.9753L27.9472 24.9577L27.9375 24.2227L26.6178 24.2403L26.6275 24.9753ZM21.9858 20.3199L23.7188 23.3216L24.3554 22.9541L22.6224 19.9524L21.9858 20.3199ZM21.4765 20.1835C21.6548 20.0805 21.8828 20.1416 21.9858 20.3199L22.6224 19.9524C22.3164 19.4225 21.6388 19.2409 21.1089 19.5469L21.4765 20.1835ZM23.844 26.0197C23.8475 26.2766 24.0579 26.4904 24.3229 26.4868L24.3131 25.7518C24.4621 25.7498 24.5772 25.869 24.5791 26.0099L23.844 26.0197ZM26.6178 24.2403C25.6864 24.2526 24.8211 23.7607 24.3554 22.9541L23.7188 23.3216C24.3176 24.3587 25.4301 24.9912 26.6275 24.9753L26.6178 24.2403ZM24.2398 26.2432C24.0575 26.3485 23.8466 26.2123 23.844 26.0197L24.5791 26.0099C24.5744 25.6589 24.1917 25.4222 23.8723 25.6066L24.2398 26.2432ZM23.5961 26.0707C23.7263 26.2961 24.0145 26.3733 24.2398 26.2432L23.8723 25.6066C23.9985 25.5337 24.1599 25.577 24.2328 25.7032L23.5961 26.0707Z" fill="white"/>
<path fill-rule="evenodd" clip-rule="evenodd" d="M27.4637 14.9254C27.5796 14.3314 28.1977 13.9758 28.7444 14.2352C30.6521 15.1406 32.314 16.6144 33.4497 18.5815C36.4269 23.7381 34.6601 30.3318 29.5035 33.309C24.3469 36.2862 17.7531 34.5194 14.7759 29.3628C11.7987 24.2062 13.5655 17.6124 18.7222 14.6352C20.2086 13.777 21.8144 13.313 23.4186 13.2108C24.0249 13.1721 24.4674 13.7356 24.351 14.3319V14.3319C24.2593 14.8022 23.8442 15.1338 23.3667 15.1739C22.1125 15.2795 20.8612 15.6561 19.699 16.3271C15.4768 18.7648 14.0302 24.1637 16.4678 28.386C18.9055 32.6082 24.3045 34.0548 28.5267 31.6171C32.7489 29.1794 34.1955 23.7805 31.7578 19.5583C30.8597 18.0027 29.5596 16.8239 28.0646 16.0773C27.6342 15.8624 27.3716 15.3975 27.4637 14.9254V14.9254Z" fill="white"/>
<path d="M23.4186 13.2108L23.4498 13.6998L23.4186 13.2108ZM28.0646 16.0773L27.8456 16.5157L28.0646 16.0773ZM23.3667 15.1739L23.4078 15.6623L23.3667 15.1739ZM28.7444 14.2352L28.9545 13.7925L28.7444 14.2352ZM33.8741 18.3364C32.6872 16.2805 30.9492 14.7391 28.9545 13.7925L28.5343 14.678C30.355 15.5421 31.9409 16.9483 33.0253 18.8265L33.8741 18.3364ZM29.7485 33.7334C35.1395 30.6209 36.9866 23.7274 33.8741 18.3364L33.0253 18.8265C35.8672 23.7487 34.1807 30.0428 29.2585 32.8846L29.7485 33.7334ZM14.3515 29.6078C17.464 34.9988 24.3575 36.8459 29.7485 33.7334L29.2585 32.8846C24.3362 35.7265 18.0422 34.04 15.2003 29.1178L14.3515 29.6078ZM18.4771 14.2108C13.0861 17.3233 11.239 24.2168 14.3515 29.6078L15.2003 29.1178C12.3585 24.1955 14.045 17.9015 18.9672 15.0596L18.4771 14.2108ZM23.3874 12.7217C21.7096 12.8286 20.0303 13.3141 18.4771 14.2108L18.9672 15.0596C20.3868 14.24 21.9192 13.7974 23.4498 13.6998L23.3874 12.7217ZM19.944 16.7515C21.0425 16.1174 22.224 15.7619 23.4078 15.6623L23.3257 14.6856C22.0011 14.797 20.6799 15.1949 19.454 15.9027L19.944 16.7515ZM16.8923 28.1409C14.5899 24.1531 15.9562 19.0539 19.944 16.7515L19.454 15.9027C14.9974 18.4758 13.4704 24.1744 16.0434 28.631L16.8923 28.1409ZM28.2816 31.1927C24.2938 33.4951 19.1946 32.1287 16.8923 28.1409L16.0434 28.631C18.6165 33.0876 24.3151 34.6145 28.7717 32.0415L28.2816 31.1927ZM31.3334 19.8033C33.6358 23.7911 32.2694 28.8903 28.2816 31.1927L28.7717 32.0415C33.2283 29.4685 34.7552 23.7699 32.1822 19.3133L31.3334 19.8033ZM27.8456 16.5157C29.2574 17.2207 30.4848 18.3335 31.3334 19.8033L32.1822 19.3133C31.2346 17.6719 29.8619 16.4271 28.2835 15.6389L27.8456 16.5157ZM23.4498 13.6998C23.6974 13.684 23.9325 13.9182 23.8701 14.2381L24.832 14.4258C25.0023 13.553 24.3525 12.6602 23.3874 12.7217L23.4498 13.6998ZM28.2835 15.6389C28.0254 15.5099 27.8999 15.2492 27.9447 15.0193L26.9827 14.8316C26.8434 15.5459 27.2431 16.2148 27.8456 16.5157L28.2835 15.6389ZM23.8701 14.2381C23.8253 14.4672 23.6124 14.6615 23.3257 14.6856L23.4078 15.6623C24.076 15.6061 24.6932 15.1371 24.832 14.4258L23.8701 14.2381ZM28.9545 13.7925C28.0847 13.3797 27.1525 13.9617 26.9827 14.8316L27.9447 15.0193C28.0068 14.7012 28.3107 14.5719 28.5343 14.678L28.9545 13.7925Z" fill="white"/>
<path d="M58.797 37.1709C58.2284 37.1709 57.7816 37.0186 57.4566 36.714C57.1317 36.389 56.9083 35.8813 56.7864 35.1908L53.1613 15.8468H55.3851L58.7056 34.2465H58.7361L64.0975 16.974H65.0419C65.4074 16.974 65.7019 17.0857 65.9253 17.3091C66.1487 17.5122 66.3315 17.8371 66.4736 18.2839L71.2259 34.2465H71.2563L74.5768 15.8468H76.8006L73.1755 35.1908C73.0536 35.8813 72.8302 36.389 72.5053 36.714C72.1804 37.0186 71.7336 37.1709 71.1649 37.1709H70.2511L65.0724 19.9898H65.0419L59.7109 37.1709H58.797ZM84.1 37.4146C82.3941 37.4146 81.0233 36.917 79.9875 35.9219C78.9518 34.9065 78.4339 33.5661 78.4339 31.9008V27.5446C78.4339 25.7981 78.9518 24.3968 79.9875 23.3407C81.0233 22.2644 82.3941 21.7262 84.1 21.7262H86.598C88.2227 21.7262 89.5326 22.2441 90.5277 23.2798C91.5228 24.3155 92.0204 25.6864 92.0204 27.3923V30.073H80.6272V31.9008C80.6272 32.9569 80.942 33.82 81.5716 34.4902C82.2215 35.14 83.0643 35.465 84.1 35.465H86.4152C87.4306 35.465 88.2531 35.1908 88.8827 34.6425C89.5123 34.0738 89.8271 33.3224 89.8271 32.3882H91.9595C91.9595 33.8911 91.4517 35.1096 90.4363 36.0438C89.4209 36.9577 88.0805 37.4146 86.4152 37.4146H84.1ZM89.8271 28.1843V27.3923C89.8271 26.2753 89.5326 25.3817 88.9436 24.7116C88.3547 24.0211 87.5728 23.6758 86.598 23.6758H84.1C83.0643 23.6758 82.2215 24.0312 81.5716 24.742C80.942 25.4528 80.6272 26.387 80.6272 27.5446V28.1843H89.8271ZM101.853 37.4146C101.182 37.4146 100.472 37.2115 99.7201 36.8053C98.9687 36.3789 98.3899 35.8508 97.9837 35.2213V37.1709H95.8513V15.8468H98.0447V23.7672C98.4915 23.1376 99.0601 22.6401 99.7506 22.2745C100.461 21.909 101.192 21.7262 101.944 21.7262H104.107C105.143 21.7262 106.056 21.9699 106.848 22.4573C107.661 22.9244 108.29 23.5946 108.737 24.4679C109.204 25.3208 109.438 26.3058 109.438 27.4228V31.3525C109.438 32.5507 109.204 33.6067 108.737 34.5206C108.29 35.4345 107.651 36.1453 106.818 36.653C106.006 37.1607 105.061 37.4146 103.985 37.4146H101.853ZM103.924 35.465C104.899 35.465 105.691 35.0893 106.3 34.3378C106.93 33.5661 107.244 32.571 107.244 31.3525V27.4228C107.244 26.3058 106.94 25.4021 106.331 24.7116C105.742 24.0211 104.98 23.6758 104.046 23.6758H102.005C100.949 23.6758 100.045 24.0617 99.2936 24.8334C98.5422 25.6051 98.1259 26.6206 98.0447 27.8797V31.5962C98.0853 32.307 98.2884 32.9569 98.6539 33.5458C99.0195 34.1348 99.4866 34.6019 100.055 34.9471C100.624 35.2924 101.223 35.465 101.853 35.465H103.924Z" fill="#37434E"/>
<path d="M118.019 37.1709C117.451 37.1709 117.004 37.0186 116.679 36.714C116.354 36.389 116.13 35.8813 116.009 35.1908L112.384 15.8468H114.607L117.928 34.2465H117.958L123.32 16.974H124.264C124.63 16.974 124.924 17.0857 125.147 17.3091C125.371 17.5122 125.554 17.8371 125.696 18.2839L130.448 34.2465H130.478L133.799 15.8468H136.023L132.398 35.1908C132.276 35.8813 132.052 36.389 131.727 36.714C131.403 37.0186 130.956 37.1709 130.387 37.1709H129.473L124.295 19.9898H124.264L118.933 37.1709H118.019ZM143.322 37.4146C141.616 37.4146 140.245 36.8866 139.21 35.8305C138.174 34.7745 137.656 33.3833 137.656 31.6571V27.4837C137.656 25.7575 138.174 24.3663 139.21 23.3103C140.266 22.2542 141.657 21.7262 143.383 21.7262H145.881C147.607 21.7262 148.988 22.2542 150.024 23.3103C151.08 24.3663 151.608 25.7575 151.608 27.4837V31.6571C151.608 33.3833 151.08 34.7745 150.024 35.8305C148.968 36.8866 147.567 37.4146 145.82 37.4146H143.322ZM145.82 35.465C146.917 35.465 147.79 35.1197 148.44 34.4292C149.09 33.7184 149.415 32.7944 149.415 31.6571V27.4837C149.415 26.3464 149.09 25.4325 148.44 24.742C147.79 24.0312 146.937 23.6758 145.881 23.6758H143.383C142.327 23.6758 141.474 24.0312 140.824 24.742C140.174 25.4325 139.849 26.3464 139.849 27.4837V31.6571C139.849 32.8147 140.164 33.7387 140.794 34.4292C141.423 35.1197 142.266 35.465 143.322 35.465H145.82ZM155.639 21.9699H157.771V24.3155C158.177 23.6047 158.787 23.0259 159.599 22.5792C160.432 22.1324 161.295 21.909 162.188 21.909H163.529V23.8891H162.188C160.889 23.8891 159.832 24.3054 159.02 25.138C158.228 25.9504 157.832 27.0369 157.832 28.3976V37.1709H155.639V21.9699ZM176.733 37.1709L170.763 29.9816L168.661 32.0836V37.1709H166.467V15.8468H168.661V29.4029L176.185 21.9699H178.866L172.286 28.489L179.353 37.1709H176.733Z" fill="#37434E"/>
<path d="M116.679 36.714L116.11 37.2829L116.119 37.292L116.129 37.3009L116.679 36.714ZM116.009 35.1908L116.801 35.051L116.799 35.0426L116.009 35.1908ZM112.384 15.8468V15.0423H111.414L111.593 15.995L112.384 15.8468ZM114.607 15.8468L115.399 15.704L115.28 15.0423H114.607V15.8468ZM117.928 34.2465L117.136 34.3893L117.255 35.051H117.928V34.2465ZM117.958 34.2465V35.051H118.551L118.727 34.485L117.958 34.2465ZM123.32 16.974V16.1694H122.727L122.551 16.7355L123.32 16.974ZM125.147 17.3091L124.579 17.878L124.592 17.8915L124.606 17.9044L125.147 17.3091ZM125.696 18.2839L126.467 18.0543L126.465 18.0471L126.463 18.0399L125.696 18.2839ZM130.448 34.2465L129.677 34.476L129.848 35.051H130.448V34.2465ZM130.478 34.2465V35.051H131.151L131.27 34.3893L130.478 34.2465ZM133.799 15.8468V15.0423H133.127L133.007 15.704L133.799 15.8468ZM136.023 15.8468L136.814 15.995L136.992 15.0423H136.023V15.8468ZM132.398 35.1908L131.607 35.0426L131.605 35.051L132.398 35.1908ZM131.727 36.714L132.278 37.3009L132.287 37.292L132.296 37.2829L131.727 36.714ZM129.473 37.1709L128.703 37.4031L128.875 37.9755H129.473V37.1709ZM124.295 19.9898L125.065 19.7576L124.892 19.1852H124.295V19.9898ZM124.264 19.9898V19.1852H123.671L123.496 19.7514L124.264 19.9898ZM118.933 37.1709V37.9755H119.526L119.701 37.4093L118.933 37.1709ZM118.019 36.3663C117.596 36.3663 117.367 36.2563 117.229 36.127L116.129 37.3009C116.641 37.7809 117.305 37.9755 118.019 37.9755V36.3663ZM117.248 36.145C117.086 35.9835 116.908 35.659 116.801 35.051L115.216 35.3306C115.353 36.1036 115.622 36.7945 116.11 37.2829L117.248 36.145ZM116.799 35.0426L113.174 15.6987L111.593 15.995L115.218 35.339L116.799 35.0426ZM112.384 16.6514H114.607V15.0423H112.384V16.6514ZM113.816 15.9897L117.136 34.3893L118.72 34.1036L115.399 15.704L113.816 15.9897ZM117.928 35.051H117.958V33.4419H117.928V35.051ZM118.727 34.485L124.088 17.2125L122.551 16.7355L117.19 34.0079L118.727 34.485ZM123.32 17.7785H124.264V16.1694H123.32V17.7785ZM124.264 17.7785C124.453 17.7785 124.53 17.8293 124.579 17.878L125.716 16.7402C125.318 16.342 124.807 16.1694 124.264 16.1694V17.7785ZM124.606 17.9044C124.682 17.9735 124.808 18.1478 124.929 18.5278L126.463 18.0399C126.299 17.5264 126.059 17.0508 125.689 16.7137L124.606 17.9044ZM124.925 18.5135L129.677 34.476L131.219 34.0169L126.467 18.0543L124.925 18.5135ZM130.448 35.051H130.478V33.4419H130.448V35.051ZM131.27 34.3893L134.591 15.9897L133.007 15.704L129.687 34.1036L131.27 34.3893ZM133.799 16.6514H136.023V15.0423H133.799V16.6514ZM135.232 15.6987L131.607 35.0426L133.188 35.339L136.814 15.995L135.232 15.6987ZM131.605 35.051C131.498 35.659 131.32 35.9835 131.159 36.145L132.296 37.2829C132.785 36.7945 133.054 36.1036 133.19 35.3306L131.605 35.051ZM131.177 36.127C131.039 36.2563 130.81 36.3663 130.387 36.3663V37.9755C131.101 37.9755 131.766 37.7809 132.278 37.3009L131.177 36.127ZM130.387 36.3663H129.473V37.9755H130.387V36.3663ZM130.244 36.9387L125.065 19.7576L123.524 20.222L128.703 37.4031L130.244 36.9387ZM124.295 19.1852H124.264V20.7944H124.295V19.1852ZM123.496 19.7514L118.165 36.9325L119.701 37.4093L125.032 20.2282L123.496 19.7514ZM118.933 36.3663H118.019V37.9755H118.933V36.3663ZM139.21 35.8305L139.784 35.2672L139.784 35.2672L139.21 35.8305ZM139.21 23.3103L138.641 22.7413L138.635 22.7469L139.21 23.3103ZM150.024 23.3103L149.45 23.8737L149.455 23.8792L150.024 23.3103ZM150.024 35.8305L149.455 35.2616L149.455 35.2616L150.024 35.8305ZM148.44 34.4292L149.026 34.9807L149.034 34.9721L148.44 34.4292ZM148.44 24.742L147.846 25.285L147.854 25.2934L148.44 24.742ZM140.824 24.742L141.41 25.2935L141.418 25.2849L140.824 24.742ZM143.322 36.61C141.796 36.61 140.645 36.145 139.784 35.2672L138.635 36.3939C139.846 37.6281 141.436 38.2192 143.322 38.2192V36.61ZM139.784 35.2672C138.92 34.3866 138.461 33.2105 138.461 31.6571H136.852C136.852 33.5561 137.427 35.1624 138.635 36.3939L139.784 35.2672ZM138.461 31.6571V27.4837H136.852V31.6571H138.461ZM138.461 27.4837C138.461 25.9303 138.92 24.7542 139.784 23.8736L138.635 22.7469C137.427 23.9784 136.852 25.5847 136.852 27.4837H138.461ZM139.779 23.8792C140.66 22.9977 141.834 22.5308 143.383 22.5308V20.9216C141.48 20.9216 139.871 21.5107 138.641 22.7414L139.779 23.8792ZM143.383 22.5308H145.881V20.9216H143.383V22.5308ZM145.881 22.5308C147.43 22.5308 148.591 22.9977 149.45 23.8736L150.598 22.7469C149.386 21.5108 147.784 20.9216 145.881 20.9216V22.5308ZM149.455 23.8792C150.337 24.7607 150.804 25.9348 150.804 27.4837H152.413C152.413 25.5801 151.824 23.972 150.593 22.7414L149.455 23.8792ZM150.804 27.4837V31.6571H152.413V27.4837H150.804ZM150.804 31.6571C150.804 33.206 150.337 34.3801 149.455 35.2616L150.593 36.3994C151.824 35.1688 152.413 33.5607 152.413 31.6571H150.804ZM149.455 35.2616C148.575 36.1413 147.392 36.61 145.82 36.61V38.2192C147.741 38.2192 149.36 37.6319 150.593 36.3994L149.455 35.2616ZM145.82 36.61H143.322V38.2192H145.82V36.61ZM145.82 36.2695C147.101 36.2695 148.2 35.8584 149.026 34.9807L147.854 33.8778C147.38 34.3811 146.733 34.6604 145.82 34.6604V36.2695ZM149.034 34.9721C149.843 34.0868 150.219 32.9568 150.219 31.6571H148.61C148.61 32.632 148.337 33.35 147.846 33.8863L149.034 34.9721ZM150.219 31.6571V27.4837H148.61V31.6571H150.219ZM150.219 27.4837C150.219 26.1848 149.843 25.0592 149.026 24.1906L147.854 25.2934C148.336 25.8059 148.61 26.508 148.61 27.4837H150.219ZM149.034 24.1991C148.216 23.3045 147.139 22.8713 145.881 22.8713V24.4804C146.736 24.4804 147.364 24.758 147.846 25.2849L149.034 24.1991ZM145.881 22.8713H143.383V24.4804H145.881V22.8713ZM143.383 22.8713C142.126 22.8713 141.048 23.3045 140.23 24.1991L141.418 25.2849C141.9 24.758 142.529 24.4804 143.383 24.4804V22.8713ZM140.238 24.1906C139.421 25.0592 139.045 26.1848 139.045 27.4837H140.654C140.654 26.508 140.928 25.8059 141.41 25.2934L140.238 24.1906ZM139.045 27.4837V31.6571H140.654V27.4837H139.045ZM139.045 31.6571C139.045 32.9652 139.404 34.0994 140.199 34.9713L141.388 33.8872C140.924 33.3781 140.654 32.6642 140.654 31.6571H139.045ZM140.199 34.9713C141.002 35.8517 142.072 36.2695 143.322 36.2695V34.6604C142.46 34.6604 141.845 34.3878 141.388 33.8872L140.199 34.9713ZM143.322 36.2695H145.82V34.6604H143.322V36.2695ZM155.639 21.9699V21.1653H154.834V21.9699H155.639ZM157.771 21.9699H158.576V21.1653H157.771V21.9699ZM157.771 24.3155H156.967V27.3452L158.47 24.7147L157.771 24.3155ZM159.599 22.5792L159.218 21.8702L159.211 21.8742L159.599 22.5792ZM163.529 21.909H164.333V21.1044H163.529V21.909ZM163.529 23.8891V24.6936H164.333V23.8891H163.529ZM159.02 25.138L158.444 24.5762L158.444 24.5764L159.02 25.138ZM157.832 37.1709V37.9755H158.637V37.1709H157.832ZM155.639 37.1709H154.834V37.9755H155.639V37.1709ZM155.639 22.7745H157.771V21.1653H155.639V22.7745ZM156.967 21.9699V24.3155H158.576V21.9699H156.967ZM158.47 24.7147C158.793 24.1489 159.286 23.6692 159.987 23.2841L159.211 21.8742C158.287 22.3827 157.562 23.0606 157.073 23.9164L158.47 24.7147ZM159.979 23.2881C160.702 22.9004 161.435 22.7135 162.188 22.7135V21.1044C161.154 21.1044 160.161 21.3644 159.219 21.8702L159.979 23.2881ZM162.188 22.7135H163.529V21.1044H162.188V22.7135ZM162.724 21.909V23.8891H164.333V21.909H162.724ZM163.529 23.0845H162.188V24.6936H163.529V23.0845ZM162.188 23.0845C160.7 23.0845 159.426 23.5694 158.444 24.5762L159.596 25.6999C160.238 25.0413 161.077 24.6936 162.188 24.6936V23.0845ZM158.444 24.5764C157.477 25.5681 157.028 26.8716 157.028 28.3976H158.637C158.637 27.2022 158.979 26.3326 159.596 25.6997L158.444 24.5764ZM157.028 28.3976V37.1709H158.637V28.3976H157.028ZM157.832 36.3663H155.639V37.9755H157.832V36.3663ZM156.443 37.1709V21.9699H154.834V37.1709H156.443ZM176.733 37.1709L176.114 37.6849L176.356 37.9755H176.733V37.1709ZM170.763 29.9816L171.382 29.4676L170.818 28.7887L170.194 29.4127L170.763 29.9816ZM168.661 32.0836L168.092 31.5147L167.856 31.7503V32.0836H168.661ZM168.661 37.1709V37.9755H169.465V37.1709H168.661ZM166.467 37.1709H165.663V37.9755H166.467V37.1709ZM166.467 15.8468V15.0423H165.663V15.8468H166.467ZM168.661 15.8468H169.465V15.0423H168.661V15.8468ZM168.661 29.4029H167.856V31.3286L169.226 29.9752L168.661 29.4029ZM176.185 21.9699V21.1653H175.855L175.62 21.3975L176.185 21.9699ZM178.866 21.9699L179.432 22.5414L180.821 21.1653H178.866V21.9699ZM172.286 28.489L171.72 27.9174L171.201 28.431L171.662 28.9969L172.286 28.489ZM179.353 37.1709V37.9755H181.046L179.977 36.663L179.353 37.1709ZM177.352 36.6569L171.382 29.4676L170.144 30.4957L176.114 37.6849L177.352 36.6569ZM170.194 29.4127L168.092 31.5147L169.23 32.6525L171.332 30.5506L170.194 29.4127ZM167.856 32.0836V37.1709H169.465V32.0836H167.856ZM168.661 36.3663H166.467V37.9755H168.661V36.3663ZM167.272 37.1709V15.8468H165.663V37.1709H167.272ZM166.467 16.6514H168.661V15.0423H166.467V16.6514ZM167.856 15.8468V29.4029H169.465V15.8468H167.856ZM169.226 29.9752L176.75 22.5423L175.62 21.3975L168.095 28.8305L169.226 29.9752ZM176.185 22.7745H178.866V21.1653H176.185V22.7745ZM178.3 21.3983L171.72 27.9174L172.852 29.0605L179.432 22.5414L178.3 21.3983ZM171.662 28.9969L178.729 37.6788L179.977 36.663L172.91 27.981L171.662 28.9969ZM179.353 36.3663H176.733V37.9755H179.353V36.3663Z" fill="#37434E"/>
<defs>
<linearGradient id="paint0_linear" x1="43.0193" y1="10.7365" x2="23.4673" y2="43.9951" gradientUnits="userSpaceOnUse">
<stop offset="0.015625" stop-color="#81F0FF"/>
<stop offset="0.994792" stop-color="#00C2FF"/>
</linearGradient>
<linearGradient id="paint1_linear" x1="43.0193" y1="10.7365" x2="23.4673" y2="43.9951" gradientUnits="userSpaceOnUse">
<stop offset="0.015625" stop-color="#81F0FF"/>
<stop offset="0.994792" stop-color="#00C2FF"/>
</linearGradient>
</defs>
</svg>
